<?xml version="1.0" encoding="UTF-8"?>
<svg id="Layer_2" data-name="Layer 2" xmlns="http://www.w3.org/2000/svg" viewBox="0 0 160.48 154.96">
  <defs>
    <style>
      .cls-1 {
        fill: #4fddb0;
        stroke-width: 0px;
      }
    </style>
  </defs>
  <g id="Layer_1-2" data-name="Layer 1">
    <path class="cls-1" d="M34.46,18.4c-1.29-4.87-2.37-8.92-3.6-13.54C44.15-.44,57.39-.94,70.5,1.14c56.41,8.93,70.4,63.81,59.94,99.29-.56,1.9-1.34,3.76-2.21,5.55-7.06,14.5-18.21,17.99-33.34,10.99-4.61,1.3-8.66,3.11-12.84,3.49-10.84.99-18.85-5.45-20.11-16.25-.57-4.88.23-9.92.54-14.89.15-2.31.86-4.6.88-6.9.03-4.1-.44-8.65-5.18-9.65-4.56-.96-7.13,2.76-9.12,6.37-7.4,13.44-2.06,35.39,11.19,46.1,29.02,23.46,74.16,8.6,83.19-27.41,4.34-17.3,2.34-34.35-2.39-51.25-.89-3.17-2.01-6.27-3.37-10.47,4.44-1.73,8.59-3.35,13.23-5.16,7.27,16.7,9.97,33.58,9.52,51.05-.28,11.08-2.27,21.87-6.99,31.96-10.71,22.89-28.76,35.08-54.03,36.42-10.72.57-21.23-.47-31.47-4.04-24.62-8.6-41.06-32.66-35.75-63.76,1.19-6.96,4.25-13.31,9.52-18.32,6.28-5.97,13.72-8.35,22.04-5.69,8.51,2.72,12.89,9.49,13.73,17.95.58,5.86-.41,11.89-.89,17.83-.34,4.23-2.22,9.64,3.36,11.01,5.23,1.28,7.28-3.83,8.51-7.99,3.4-11.5,3.52-23.07-1.37-34.18-8.02-18.21-29.93-25.48-48.16-15.92-14.48,7.6-21.45,20.47-23.32,36.21-2.37,20.02,3.97,37.4,17.08,52.46,2.18,2.5,4.53,4.86,7.54,8.08-2.92,3.46-5.81,6.9-9.22,10.94-14.6-12.4-24.02-27.27-28.52-45.11C-2.45,90.27-.17,71.45,10.45,54.09c11.58-18.93,32.95-28.85,53.62-25.4,23.26,3.88,40.15,23.35,41.29,48.37.32,6.9-.96,13.88-1.59,20.81-.27,3-1.14,6.89,2.73,7.33,2.27.26,6.31-1.95,7.08-3.98,2.31-6.11,4.28-12.61,4.83-19.08,2.71-31.68-15.32-58.04-44.13-65.02-12.87-3.12-25.76-1.96-39.84,1.29Z"/>
  </g>
</svg>