<?xml version="1.0" encoding="UTF-8"?>
<svg id="Layer_2" data-name="Layer 2" xmlns="http://www.w3.org/2000/svg" viewBox="0 0 163.96 150">
  <defs>
    <style>
      .cls-1 {
        fill: #000;
        stroke-width: 0px;
      }
    </style>
  </defs>
  <g id="Layer_1-2" data-name="Layer 1">
    <g>
      <path class="cls-1" d="M163.18,59.72c-2.17-6.67-8.09-10.85-15.43-10.88-4.03-.01-8.07-.05-12.1.03-1.29.03-2.02-.35-2.68-1.5-6.71-11.85-13.48-23.66-20.23-35.48-1.78-3.12-3.52-6.27-5.37-9.35-1.22-2.03-3.38-2.89-5.63-2.42-2.01.42-3.84,2.15-3.93,4.28-.05,1.38.34,2.94,1.02,4.15,7.28,12.9,14.65,25.74,22,38.6.28.49.52,1.01.83,1.62H42.26c.36-.67.57-1.1.81-1.52,4.72-8.28,9.45-16.55,14.18-24.82,2.76-4.82,5.52-9.64,8.26-14.47,1.13-1.99,1.06-3.99-.28-5.84-1.28-1.75-3.08-2.37-5.19-2-1.87.33-3.01,1.57-3.92,3.16-8.38,14.71-16.8,29.41-25.16,44.14-.62,1.1-1.3,1.48-2.55,1.45-4.25-.08-8.5-.07-12.75-.02-6.92.08-12.82,4.43-14.91,10.93-2.07,6.44.2,13.28,5.69,17.47.71.54,1.35,1.42,1.61,2.27,6.14,20.31,12.23,40.64,18.33,60.97,1.9,6.32,6.16,9.51,12.78,9.51,28.56,0,57.12,0,85.68,0,6.6,0,10.83-3.2,12.74-9.57,6.1-20.33,12.19-40.66,18.32-60.97.22-.72.68-1.51,1.26-1.95,5.83-4.4,8.16-11.19,6.01-17.78ZM140.11,95.62c-4.12,13.76-8.25,27.51-12.38,41.27-.77,2.56-.86,2.64-3.51,2.64-28.23,0-56.46-.01-84.68.03-1.83,0-2.74-.59-3.26-2.37-5.5-18.52-11.06-37.01-16.6-55.51-.12-.41-.2-.84-.32-1.36h125.32c-1.55,5.19-3.05,10.25-4.56,15.29ZM148.76,69.74c-.59.06-1.2.03-1.8.03-21.68,0-43.37,0-65.05,0-21.85,0-43.69,0-65.54,0-3.07,0-5.14-1.48-5.74-4.05-.73-3.12,1.44-6.12,4.64-6.4.38-.03.76-.02,1.14-.02,43.69,0,87.39,0,131.08,0,2.92,0,4.88,1.21,5.69,3.49,1.13,3.17-1.06,6.61-4.43,6.94Z"/>
      <path class="cls-1" d="M47.81,112.01c1.11,4.43,2.17,8.87,3.37,13.27.73,2.69,3.19,4.13,5.91,3.7,2.44-.38,4.31-2.66,4.28-5.51-.03-.19-.1-.67-.21-1.14-2.26-9.07-4.5-18.14-6.79-27.21-.81-3.23-3.56-5-6.43-4.26-3.03.79-4.51,3.55-3.68,6.91,1.17,4.75,2.36,9.49,3.54,14.24Z"/>
      <path class="cls-1" d="M108.42,129.05c2.55.02,4.56-1.58,5.24-4.28,1.67-6.64,3.32-13.29,4.97-19.93.73-2.95,1.46-5.9,2.03-8.21,0-3.3-1.9-5.51-4.48-5.88-2.59-.37-5.07,1.26-5.76,3.96-2.37,9.32-4.7,18.65-7,27.99-.19.76-.15,1.64.04,2.4.57,2.39,2.58,3.92,4.97,3.94Z"/>
      <path class="cls-1" d="M81.91,129.05c3.13.03,5.29-2.29,5.3-5.74.01-4.52,0-9.04,0-13.55,0-4.46.01-8.93,0-13.39-.01-3.31-2.22-5.66-5.24-5.66-3.03,0-5.21,2.35-5.21,5.68-.01,8.98-.01,17.96,0,26.94,0,3.36,2.12,5.68,5.16,5.71Z"/>
    </g>
  </g>
</svg>