<?xml version="1.0" encoding="UTF-8"?>
<svg id="Layer_2" data-name="Layer 2" xmlns="http://www.w3.org/2000/svg" viewBox="0 0 147.91 150">
  <defs>
    <style>
      .cls-1 {
        fill: #000;
        stroke-width: 0px;
      }
    </style>
  </defs>
  <g id="Layer_1-2" data-name="Layer 1">
    <g>
      <path class="cls-1" d="M147.83,114.47c-.64-9.11-.92-18.41-1.2-27.4-.12-4.05-.25-8.1-.4-12.15l-.38-10.47c-.34-9.5-.69-19.31-1.1-28.97v-.13c-.15-3.49-.31-7.09-1.13-10.53C140.13,10.26,127.19.07,112.16.03,90.88-.02,69.24,0,48.32.02h-12.77c-1.47.01-2.91.16-4.39.34C16.49,2.07,3.96,15.4,3.24,30.08c-.3,6.09-.51,12.28-.72,18.27-.1,2.88-.2,5.76-.31,8.63l-.55,14.47c-.32,8.43-.65,16.86-.96,25.29-.07,1.99-.17,3.99-.26,5.99C.2,107.59-.03,112.61,0,117.57c.12,17.8,14.69,32.33,32.49,32.38,12.01.03,23.93.05,35.73.05,16.3,0,32.34-.03,47.97-.1,2.88-.01,6.07-.54,9.49-1.58,11.63-3.52,23.34-16.58,22.14-33.86ZM121.52,136.55c-1.78.54-3.65.83-5.38.84-30.77.06-58.09.07-83.53.02-5.5,0-10.62-2.2-14.42-6.16-3.86-4.03-5.87-9.35-5.65-14.98l.33-8.21c.17-4.25.34-8.5.5-12.75.18-4.82.35-9.65.52-14.48l.26-7.34h0c.15-4,.3-8,.45-12,.37-10.01.75-20.35,1.2-30.52.43-9.85,9.34-18.27,19.44-18.39,6.21-.08,12.52-.06,18.63-.04,2.65,0,5.31,0,7.94.01h50.03c7.99,0,13.83,3.05,17.84,9.34,1.84,2.88,2.84,6.23,2.98,9.98.94,24.96,2.04,54.43,3.09,83.82.34,9.48-5.63,18.25-14.2,20.87Z"/>
      <path class="cls-1" d="M105.64,21.16h-.05c-3.66,0-6.12,2.42-6.27,6.19v.2c-.05,1.1-.1,2.24-.26,3.31-1.59,10.37-7.21,17.28-16.7,20.53-9.86,3.38-18.72,1.44-26.33-5.76-4.87-4.6-7.42-10.64-7.57-17.93-.07-3.23-1.44-5.31-4.08-6.18-2.13-.7-4.27-.44-5.88.72-1.63,1.17-2.57,3.15-2.58,5.43-.11,20.67,16.9,37.72,37.92,38.01h.08s.08,0,.08,0c.92-.13,1.84-.25,2.77-.36,2-.25,4.08-.5,6.09-.95,16.82-3.77,29.29-19.62,29.02-36.87-.06-3.81-2.5-6.28-6.22-6.31Z"/>
    </g>
  </g>
</svg>