<?xml version="1.0" encoding="UTF-8"?>
<svg id="Layer_2" data-name="Layer 2" xmlns="http://www.w3.org/2000/svg" viewBox="0 0 150.04 150">
  <defs>
    <style>
      .cls-1 {
        fill: #000;
        stroke-width: 0px;
      }
    </style>
  </defs>
  <g id="Layer_1-2" data-name="Layer 1">
    <g>
      <path class="cls-1" d="M115.71,150H34.27c-.32-.09-.64-.21-.98-.25-15.58-2.28-26.08-10.84-31.41-25.63-.96-2.67-1.27-5.59-1.89-8.39,0-27.14,0-54.28,0-81.42.09-.37.22-.74.26-1.12C2.55,14.31,18.23.15,37.21.08c25.23-.1,50.46-.11,75.69,0,20.32.09,36.93,16.6,37.04,36.89.14,25.37.12,50.74,0,76.11-.07,16.52-11.33,31.02-27.25,35.46-2.29.64-4.65.98-6.98,1.46ZM137.46,75.17c0-12.25.02-24.5-.02-36.76,0-1.99-.1-4.02-.51-5.96-2.48-11.67-12.31-19.81-24.25-19.85-25.14-.09-50.29-.03-75.43-.02-1.07,0-2.15.05-3.21.22-12.88,2.09-21.49,12.17-21.5,25.24-.02,24.65-.01,49.3,0,73.95,0,1.31.01,2.65.22,3.94,2.07,12.88,12.16,21.52,25.21,21.54,24.7.03,49.41.02,74.11-.01,1.84,0,3.73-.13,5.52-.52,11.83-2.55,19.8-12.47,19.85-24.72.05-12.35.01-24.7.01-37.05Z"/>
      <path class="cls-1" d="M68.77,75.04c0-10.34-.02-20.68.01-31.02.02-4.53,3.99-7.5,8.13-6.17,2.44.78,4.12,2.97,4.28,5.55.02.29.02.58.02.88,0,20.49,0,40.97,0,61.46,0,3.39-1.64,5.7-4.55,6.52-3.83,1.08-7.7-1.63-7.85-5.61-.11-2.97-.04-5.95-.04-8.93,0-7.56,0-15.12,0-22.68Z"/>
      <path class="cls-1" d="M37.5,87.63c0-6.29-.03-12.58.01-18.87.02-3.2,2.21-5.65,5.36-6.16,2.86-.46,5.72,1.21,6.7,4.02.3.86.43,1.81.43,2.72.03,12.14.03,24.28.01,36.42,0,3.98-2.68,6.78-6.34,6.75-3.59-.04-6.17-2.83-6.17-6.74-.01-6.05,0-12.09,0-18.14Z"/>
      <path class="cls-1" d="M112.48,87.63c0,6.24.03,12.48-.02,18.72-.02,2.91-1.92,5.22-4.72,5.95-2.62.69-5.49-.38-6.78-2.79-.59-1.11-.95-2.49-.96-3.75-.07-12.19-.06-24.38-.03-36.56,0-3.86,2.71-6.69,6.27-6.69,3.58,0,6.23,2.83,6.24,6.69.01,6.14,0,12.29,0,18.43Z"/>
    </g>
  </g>
</svg>