<?xml version="1.0" encoding="UTF-8"?>
<svg id="Layer_2" data-name="Layer 2" xmlns="http://www.w3.org/2000/svg" viewBox="0 0 149.54 150">
  <defs>
    <style>
      .cls-1 {
        fill: #000;
        stroke-width: 0px;
      }
    </style>
  </defs>
  <g id="Layer_1-2" data-name="Layer 1">
    <g>
      <path class="cls-1" d="M83.18,139.49c-.94-.3-1.92-.3-2.72-.3-6.55-.01-13.09-.01-19.64-.01h-16.24c-8.29,0-16.58.01-24.87,0-5.58-.01-8.91-3.23-8.91-8.62-.01-37,0-74,0-111,0-5.29,3.3-8.58,8.62-8.58,26.67,0,53.33,0,80,0,.64,0,1.37,0,2,.12,4.1.81,6.56,4,6.56,8.52v8.39c.02,13.86.03,28.2-.04,42.29-.02,3.99,2.72,6.09,5.44,6.11h.04c1.42,0,2.67-.5,3.63-1.46,1.1-1.1,1.71-2.72,1.71-4.56v-14.57c0-12.14,0-24.28,0-36.41C118.75,8.35,110.39,0,99.31,0,72.7,0,46.08,0,19.46,0c-.99,0-1.96.01-2.94.16C6.65,1.66.02,9.38,0,19.38,0,32.44,0,45.5,0,58.56v72.25c0,6.46,2.68,11.74,7.97,15.68,2.67,1.99,5.75,2.83,8.43,3.46l66.53.04.66-.4c.29-.17.57-.34.84-.53,1.81-1.29,2.65-3.15,2.35-5.24-.3-2.12-1.62-3.7-3.6-4.33Z"/>
      <path class="cls-1" d="M148.48,108.17c-2.98-4.32-6.62-8.29-10.83-11.79-8.18-6.8-16.67-10.32-25.97-10.74h-.17s-.17.02-.17.02c-1,.19-2.01.34-3.02.5-2.25.35-4.58.71-6.82,1.41-10.35,3.23-19.16,10.11-26.96,21.02-1.11,1.55-1.13,3.35-.06,5.34,3.28,6.14,7.43,11.24,12.34,15.17,7.59,6.07,15.63,9.12,24.01,9.12,3.5,0,7.07-.53,10.68-1.6,11.03-3.26,19.98-10.81,27.37-23.11.7-1.17,1.2-3.04-.4-5.36ZM122.36,126.23c-9.65,4.27-19.21,3.06-28.44-3.6-3.78-2.72-7.01-6.32-9.85-10.98,3.64-4.55,7.63-8.22,12.16-11.18,3.87-2.54,7.65-4.09,11.56-4.75,4.57-.78,9.2-.17,13.77,1.79,6.37,2.73,11.95,7.17,17.51,13.95-5.18,7.33-10.5,12.03-16.69,14.78Z"/>
      <path class="cls-1" d="M91.65,45.16c.1,0,.21,0,.32,0,.23,0,.47,0,.73-.04,1.48-.17,2.85-.95,3.74-2.15.89-1.19,1.26-2.72,1-4.18-.48-2.72-2.68-4.41-5.74-4.42-8.01,0-16.01,0-24.01,0h-7.11s-7.97-.01-7.97-.01c-8.84,0-17.68,0-26.52.03-1.1,0-2.25.29-3.15.78-2.12,1.16-3.12,3.77-2.38,6.21.73,2.37,2.83,3.78,5.64,3.78h65.18s.27,0,.27,0Z"/>
      <path class="cls-1" d="M61.55,64.96h-.34s-28.3,0-28.3,0c-2.11,0-4.21,0-6.31.01-2.64.02-4.63,1.3-5.46,3.51-.64,1.69-.44,3.48.53,4.9,1.06,1.54,2.86,2.43,4.93,2.44,2.45.01,4.9.02,7.35.02,1.8,0,3.6,0,5.4,0h5.06s5.16,0,5.16,0c4.27,0,8.53,0,12.8-.01,3.27-.02,5.69-2.26,5.76-5.32.07-3.11-2.34-5.44-5.73-5.54-.28,0-.57,0-.86,0Z"/>
      <path class="cls-1" d="M112.52,104.69h-.04c-2.11,0-4.09.82-5.58,2.3-1.5,1.49-2.33,3.48-2.34,5.61-.02,4.43,3.42,7.96,7.83,8.03.05,0,.09,0,.14,0,2.07,0,4.03-.81,5.53-2.29,1.55-1.53,2.41-3.56,2.4-5.71-.01-4.35-3.58-7.91-7.94-7.93Z"/>
    </g>
  </g>
</svg>