<?xml version="1.0" encoding="UTF-8"?>
<svg id="Layer_2" data-name="Layer 2" xmlns="http://www.w3.org/2000/svg" viewBox="0 0 130.68 150">
  <defs>
    <style>
      .cls-1 {
        fill: #000;
        stroke-width: 0px;
      }
    </style>
  </defs>
  <g id="Layer_1-2" data-name="Layer 1">
    <g>
      <path class="cls-1" d="M20.81,150c-1.13-.27-2.26-.52-3.38-.82C7.18,146.43.04,137.29.03,126.67,0,92.21-.02,57.75.04,23.29.06,10.48,10.48.07,23.26.03c22.07-.06,44.14-.02,66.2-.01,4.19,0,7.26,2.97,7.29,6.97.02,4.07-3.06,7.08-7.32,7.08-21.63.01-43.26,0-64.89,0-6.66,0-10.46,3.78-10.46,10.41,0,33.68,0,67.36,0,101.05,0,6.62,3.81,10.41,10.47,10.41,21.63,0,43.26,0,64.89,0,3.73,0,6.69,2.4,7.23,5.77.59,3.67-1.37,6.77-5.05,8.02-.18.06-.34.18-.5.27H20.81Z"/>
      <path class="cls-1" d="M106.21,82.04h-1.57c-17.67,0-35.34,0-53.01,0-3.99,0-7.07-2.75-7.35-6.49-.31-4.11,2.9-7.54,7.15-7.56,7.32-.03,14.64,0,21.97,0,10.4,0,20.8,0,31.19,0h1.96c-.51-.56-.83-.94-1.18-1.28-6.62-6.63-13.25-13.26-19.88-19.88-2.09-2.08-2.87-4.52-2.01-7.35,1.49-4.92,7.51-6.57,11.36-3.15.36.32.71.67,1.05,1.02,10.67,10.66,21.33,21.33,32,31.99,3.73,3.73,3.73,7.62.01,11.34-10.77,10.77-21.55,21.53-32.3,32.31-1.93,1.94-4.17,2.9-6.88,2.29-2.69-.6-4.51-2.27-5.26-4.95-.77-2.74,0-5.1,1.99-7.09,6.59-6.59,13.18-13.19,19.79-19.77.38-.37.87-.63,1.3-.95-.11-.16-.22-.32-.32-.49Z"/>
    </g>
  </g>
</svg>