<?xml version="1.0" encoding="UTF-8"?>
<svg id="Layer_2" data-name="Layer 2" xmlns="http://www.w3.org/2000/svg" viewBox="0 0 145.41 150">
  <defs>
    <style>
      .cls-1 {
        fill: #000;
        stroke-width: 0px;
      }
    </style>
  </defs>
  <g id="Layer_1-2" data-name="Layer 1">
    <g>
      <path class="cls-1" d="M141.07,86.92c-2-1.71-4.08-3.33-6.09-5.05-4.47-3.82-4.46-9.93.02-13.75,1.97-1.68,4.01-3.27,5.98-4.95,4.67-3.98,5.74-9.84,2.7-15.17-3.99-6.99-8.01-13.96-12.07-20.91-3.16-5.42-8.84-7.4-14.73-5.23-2.42.89-4.82,1.87-7.26,2.7-5.44,1.86-10.76-1.33-11.73-7-.41-2.4-.8-4.81-1.2-7.22C95.69,4.28,91.11.09,85.22.05c-8.35-.06-16.7-.06-25.04,0-5.53.04-10.12,3.89-11.23,9.32-.54,2.67-.94,5.38-1.41,8.07-1.03,5.93-6.37,9.07-12.03,7.04-2.38-.86-4.74-1.8-7.12-2.66-5.73-2.08-11.45-.09-14.53,5.16-4.12,7.03-8.19,14.08-12.21,21.16-2.95,5.19-1.87,11.05,2.67,14.94,2,1.72,4.08,3.34,6.09,5.05,4.47,3.8,4.48,9.94.02,13.75-1.93,1.65-3.93,3.22-5.86,4.86-4.83,4.09-5.91,9.91-2.78,15.38,3.97,6.94,7.97,13.87,12,20.78,3.16,5.42,8.83,7.43,14.72,5.27,2.43-.89,4.82-1.86,7.26-2.71,5.42-1.88,10.78,1.31,11.76,6.96.41,2.4.8,4.81,1.2,7.22.72,4.42,3.02,7.65,7.17,9.46.88.38,1.84.61,2.76.91h28.12c.17-.08.34-.19.52-.24,5.22-1.2,8.28-4.51,9.31-9.7.49-2.49.84-5,1.27-7.5,1.01-5.91,6.39-9.04,12.05-7,2.43.88,4.82,1.85,7.26,2.71,5.6,1.98,11.31-.02,14.31-5.12,4.15-7.06,8.25-14.16,12.29-21.29,2.94-5.19,1.84-11.05-2.7-14.94ZM133,97.11c-3.66,6.33-7.34,12.65-10.95,19.01-.55.97-1.01,1.09-2.05.74-3.72-1.26-7.42-2.89-11.27-3.45-10.41-1.51-20.38,5.99-22.27,16.33-.52,2.82-.97,5.65-1.46,8.49h-24.61c-.48-2.78-.92-5.51-1.43-8.24-2.31-12.48-15.11-19.87-27.06-15.6-2.57.92-5.1,1.91-7.84,2.93-4.1-7.1-8.19-14.17-12.32-21.32,2-1.65,3.95-3.26,5.9-4.87,10.43-8.59,10.44-23.63.02-32.2-1.96-1.61-3.91-3.22-5.92-4.88,2.66-4.62,5.29-9.17,7.92-13.73,1.27-2.2,2.57-4.37,3.78-6.6.45-.82.86-.94,1.72-.61,3.01,1.13,5.98,2.46,9.09,3.18,11.93,2.77,23.08-5.15,24.94-17.51.35-2.31.77-4.61,1.16-6.97h24.62c.48,2.77.94,5.55,1.44,8.32,2.22,12.07,14.6,19.51,26.29,15.75,2.59-.83,5.14-1.84,7.68-2.83.69-.27,1.03-.18,1.4.47,3.91,6.81,7.84,13.6,11.84,20.53-1.89,1.56-3.75,3.1-5.62,4.64-10.83,8.87-10.84,23.8-.01,32.66,1.85,1.51,3.69,3.04,5.58,4.6-.21.42-.38.81-.59,1.18Z"/>
      <path class="cls-1" d="M73.71,46.15c-15.8-.67-29.16,11.7-29.92,27.81-.74,15.68,11.75,29.13,27.98,29.94,15.91.44,29.13-11.89,29.85-27.93.7-15.62-11.73-29.14-27.91-29.83ZM72.66,92.22c-9.38-.04-17.14-7.8-17.16-17.18-.02-9.42,7.83-17.27,17.25-17.23,9.39.04,17.13,7.79,17.16,17.18.02,9.42-7.83,17.27-17.25,17.23Z"/>
    </g>
  </g>
</svg>