<?xml version="1.0" encoding="UTF-8"?>
<svg id="Layer_2" data-name="Layer 2" xmlns="http://www.w3.org/2000/svg" viewBox="0 0 128.96 150">
  <defs>
    <style>
      .cls-1 {
        fill: #000;
        stroke-width: 0px;
      }
    </style>
  </defs>
  <g id="Layer_1-2" data-name="Layer 1">
    <path class="cls-1" d="M68.59,0c2.65.38,5.31.68,7.94,1.15,25.72,4.58,46.73,25.64,51.24,51.48.68,3.92,1.07,7.94,1.11,11.92.13,14.74.08,29.48.04,44.23-.03,13.91-9.28,25.58-22.82,28.7-2.21.51-4.54.69-6.82.73-5.66.1-11.32.06-16.99.01-.91,0-1.34.26-1.72,1.12-3.43,7.83-11.91,12.14-19.93,10.19-8.57-2.08-14.2-9.59-13.71-18.3.43-7.8,6.53-14.69,14.25-16.11,8.02-1.47,15.96,2.61,19.25,10.02.51,1.15,1.11,1.43,2.26,1.42,5.81-.06,11.62.03,17.43-.05,6.96-.1,13.34-4.62,15.85-11.09.14-.35.21-.72.36-1.21-.89.15-1.64.28-2.4.39-10.39,1.61-20.03-6.5-20.14-17.02-.07-7.03-.03-14.06-.01-21.09.02-11.93,10.66-20.19,22.22-17.28.23.06.46.13,1,.28-1.82-15.51-8.54-28.17-21.06-37.22-17.48-12.64-36.39-14.29-55.61-4.55-16.82,8.53-25.9,22.9-28.43,41.77,3.56-1.03,6.85-1.2,10.19-.34,7.48,1.94,13.01,8.86,13.09,16.6.07,7.27.07,14.55,0,21.82-.1,9.54-8.08,17.27-17.67,17.24-9.48-.04-17.39-7.83-17.45-17.31-.06-11.23-.11-22.46,0-33.68C.36,36.91,16.94,13.38,42.17,3.98c5.46-2.04,11.11-3.3,16.94-3.72.43-.03.85-.17,1.28-.25,2.73,0,5.47,0,8.2,0ZM11.76,86.76c0,3.36-.01,6.73,0,10.09.02,3.64,2.52,6.28,5.92,6.24,3.33-.03,5.78-2.64,5.79-6.23.02-6.78.02-13.55,0-20.33,0-3.65-2.52-6.28-5.92-6.24-3.33.03-5.77,2.65-5.79,6.23-.02,3.41,0,6.82,0,10.24ZM117.21,86.64c0-3.36.01-6.73,0-10.09-.02-3.65-2.51-6.28-5.91-6.25-3.33.03-5.79,2.64-5.79,6.22-.01,6.78-.01,13.55,0,20.33,0,3.65,2.52,6.28,5.91,6.25,3.33-.03,5.78-2.64,5.8-6.22.02-3.41,0-6.82,0-10.24ZM64.48,138.25c3.21,0,5.86-2.63,5.86-5.85,0-3.22-2.63-5.86-5.85-5.86-3.22,0-5.86,2.63-5.86,5.85,0,3.22,2.63,5.86,5.84,5.86Z"/>
  </g>
</svg>