<?xml version="1.0" encoding="UTF-8"?>
<svg id="Layer_2" data-name="Layer 2" xmlns="http://www.w3.org/2000/svg" viewBox="0 0 150 150">
  <defs>
    <style>
      .cls-1 {
        fill: #4fddb0;
        stroke-width: 0px;
      }
    </style>
  </defs>
  <g id="Layer_1-2" data-name="Layer 1">
    <g>
      <path class="cls-1" d="M68.68,93.17c-2.24-5.4-6.45-9.61-11.85-11.85-2.01-.83-4.24-1.29-7.23-1.5-2.47-.17-5.43-.17-9.17-.17h-10.5c-3.75,0-6.71,0-9.17.17-2.99.2-5.22.67-7.23,1.5-5.4,2.24-9.61,6.45-11.85,11.85-.83,2.01-1.29,4.24-1.5,7.23-.17,2.47-.17,5.43-.17,9.17v10.5c0,3.75,0,6.7.17,9.17.2,2.99.67,5.22,1.5,7.23,2.24,5.4,6.45,9.61,11.85,11.85,2.01.83,4.24,1.3,7.23,1.5,2.47.17,5.43.17,9.17.17h10.5c3.75,0,6.7,0,9.17-.17,2.99-.2,5.22-.67,7.23-1.5,5.4-2.24,9.61-6.45,11.85-11.85.83-2.01,1.29-4.24,1.5-7.23.17-2.47.17-5.43.17-9.17v-10.5c0-3.75,0-6.7-.17-9.17-.2-2.99-.67-5.22-1.5-7.23ZM59.23,119.94c0,3.76,0,6.47-.14,8.56-.12,1.74-.33,2.89-.68,3.73-1.1,2.66-3.18,4.74-5.84,5.84-.85.35-2,.56-3.73.68-2.09.14-4.8.14-8.56.14h-10.21c-3.76,0-6.48,0-8.56-.14-1.74-.12-2.89-.33-3.73-.68-2.66-1.1-4.73-3.18-5.84-5.84-.35-.85-.56-2-.68-3.73-.14-2.09-.14-4.8-.14-8.56v-10.21c0-3.76,0-6.48.14-8.56.12-1.73.33-2.89.68-3.73,1.1-2.66,3.18-4.73,5.84-5.84.85-.35,2-.56,3.74-.68,2.09-.14,4.8-.14,8.56-.14h10.21c3.76,0,6.48,0,8.56.14,1.74.12,2.89.33,3.74.68,2.66,1.1,4.73,3.17,5.84,5.84.35.85.56,2,.68,3.73.14,2.09.14,4.81.14,8.56v10.21Z"/>
      <path class="cls-1" d="M149.83,20.75c-.2-2.99-.67-5.22-1.5-7.23-2.24-5.4-6.45-9.61-11.85-11.85-2.01-.83-4.24-1.29-7.23-1.5-2.47-.17-5.43-.17-9.17-.17h-10.5c-3.75,0-6.71,0-9.17.17-2.99.2-5.22.67-7.23,1.5-5.4,2.24-9.61,6.45-11.85,11.85-.83,2.01-1.29,4.24-1.5,7.23-.17,2.47-.17,5.43-.17,9.17v10.5c0,3.75,0,6.7.17,9.17.2,2.99.67,5.22,1.5,7.23,2.24,5.4,6.45,9.61,11.85,11.85,2.01.83,4.24,1.3,7.23,1.5,2.47.17,5.43.17,9.17.17h10.5c3.75,0,6.7,0,9.17-.17,2.99-.2,5.22-.67,7.23-1.5,5.4-2.24,9.61-6.45,11.85-11.85.83-2.01,1.29-4.24,1.5-7.23.17-2.47.17-5.43.17-9.17v-10.5c0-3.75,0-6.7-.17-9.17ZM138.89,40.28c0,3.76,0,6.47-.14,8.56-.12,1.74-.33,2.89-.68,3.73-1.1,2.66-3.18,4.74-5.84,5.84-.85.35-2,.56-3.73.68-2.09.14-4.8.14-8.56.14h-10.21c-3.76,0-6.48,0-8.56-.14-1.74-.12-2.89-.33-3.73-.68-2.66-1.1-4.73-3.18-5.84-5.84-.35-.85-.56-2-.68-3.73-.14-2.09-.14-4.8-.14-8.56v-10.21c0-3.76,0-6.48.14-8.56.12-1.73.33-2.89.68-3.73,1.1-2.66,3.18-4.73,5.84-5.84.85-.35,2-.56,3.74-.68,2.09-.14,4.8-.14,8.56-.14h10.21c3.76,0,6.48,0,8.56.14,1.74.12,2.89.33,3.74.68,2.66,1.1,4.73,3.17,5.84,5.84.35.85.56,2,.68,3.73.14,2.09.14,4.81.14,8.56v10.21Z"/>
      <path class="cls-1" d="M68.68,13.52c-2.24-5.4-6.45-9.61-11.85-11.85-2.01-.83-4.24-1.29-7.23-1.5-2.47-.17-5.43-.17-9.17-.17h-10.5c-3.75,0-6.71,0-9.17.17-2.99.2-5.22.67-7.23,1.5C8.11,3.9,3.9,8.11,1.67,13.52c-.83,2.01-1.29,4.24-1.5,7.23-.17,2.47-.17,5.43-.17,9.17v10.5c0,3.75,0,6.7.17,9.17.2,2.99.67,5.22,1.5,7.23,2.24,5.4,6.45,9.61,11.85,11.85,2.01.83,4.24,1.3,7.23,1.5,2.47.17,5.43.17,9.17.17h10.5c3.75,0,6.7,0,9.17-.17,2.99-.2,5.22-.67,7.23-1.5,5.4-2.24,9.61-6.45,11.85-11.85.83-2.01,1.29-4.24,1.5-7.23.17-2.47.17-5.43.17-9.17v-10.5c0-3.75,0-6.7-.17-9.17-.2-2.99-.67-5.22-1.5-7.23ZM59.23,40.28c0,3.76,0,6.47-.14,8.56-.12,1.74-.33,2.89-.68,3.73-1.1,2.66-3.18,4.74-5.84,5.84-.85.35-2,.56-3.73.68-2.09.14-4.8.14-8.56.14h-10.21c-3.76,0-6.48,0-8.56-.14-1.74-.12-2.89-.33-3.73-.68-2.66-1.1-4.73-3.18-5.84-5.84-.35-.85-.56-2-.68-3.73-.14-2.09-.14-4.8-.14-8.56v-10.21c0-3.76,0-6.48.14-8.56.12-1.73.33-2.89.68-3.73,1.1-2.66,3.18-4.73,5.84-5.84.85-.35,2-.56,3.74-.68,2.09-.14,4.8-.14,8.56-.14h10.21c3.76,0,6.48,0,8.56.14,1.74.12,2.89.33,3.74.68,2.66,1.1,4.73,3.17,5.84,5.84.35.85.56,2,.68,3.73.14,2.09.14,4.81.14,8.56v10.21Z"/>
      <path class="cls-1" d="M148.33,93.17c-2.24-5.4-6.45-9.61-11.85-11.85-2.01-.83-4.24-1.29-7.23-1.5-2.47-.17-5.43-.17-9.17-.17h-10.5c-3.75,0-6.71,0-9.17.17-2.99.2-5.22.67-7.23,1.5-5.4,2.24-9.61,6.45-11.85,11.85-.83,2.01-1.29,4.24-1.5,7.23-.17,2.47-.17,5.43-.17,9.17v10.5c0,3.75,0,6.7.17,9.17.2,2.99.67,5.22,1.5,7.23,2.24,5.4,6.45,9.61,11.85,11.85,2.01.83,4.24,1.3,7.23,1.5,2.47.17,5.43.17,9.17.17h10.5c3.75,0,6.7,0,9.17-.17,2.99-.2,5.22-.67,7.23-1.5,5.4-2.24,9.61-6.45,11.85-11.85.83-2.01,1.29-4.24,1.5-7.23.17-2.47.17-5.43.17-9.17v-10.5c0-3.75,0-6.7-.17-9.17-.2-2.99-.67-5.22-1.5-7.23ZM138.89,119.94c0,3.76,0,6.47-.14,8.56-.12,1.74-.33,2.89-.68,3.73-1.1,2.66-3.18,4.74-5.84,5.84-.85.35-2,.56-3.73.68-2.09.14-4.8.14-8.56.14h-10.21c-3.76,0-6.48,0-8.56-.14-1.74-.12-2.89-.33-3.73-.68-2.66-1.1-4.73-3.18-5.84-5.84-.35-.85-.56-2-.68-3.73-.14-2.09-.14-4.8-.14-8.56v-10.21c0-3.76,0-6.48.14-8.56.12-1.73.33-2.89.68-3.73,1.1-2.66,3.18-4.73,5.84-5.84.85-.35,2-.56,3.74-.68,2.09-.14,4.8-.14,8.56-.14h10.21c3.76,0,6.48,0,8.56.14,1.74.12,2.89.33,3.74.68,2.66,1.1,4.73,3.17,5.84,5.84.35.85.56,2,.68,3.73.14,2.09.14,4.81.14,8.56v10.21Z"/>
    </g>
  </g>
</svg>